<svg xmlns="http://www.w3.org/2000/svg" version="1.1" xmlns:xlink="http://www.w3.org/1999/xlink" xmlns:svgjs="http://svgjs.dev/svgjs" width="1440" height="900" preserveAspectRatio="none" viewBox="0 0 1440 900">
    <g mask="url(&quot;#SvgjsMask2016&quot;)" fill="none">
        <rect width="1440" height="900" x="0" y="0" fill="url(&quot;#SvgjsLinearGradient2017&quot;)"></rect>
        <path d="M-64.39 543.21L-64.39 543.21" stroke="#132e65" stroke-width="1.5"></path>
        <path d="M-64.39 543.21L-51.54 682.45" stroke="#132e65" stroke-width="1.5"></path>
        <path d="M-64.39 543.21L-48.01 825.93" stroke="#132e65" stroke-width="1.5"></path>
        <path d="M-64.39 543.21L250.58 661.31" stroke="#132e65" stroke-width="1.5"></path>
        <path d="M-64.39 543.21L94.4 842.35" stroke="#132e65" stroke-width="1.5"></path>
        <path d="M-51.54 682.45L-51.54 682.45" stroke="#132e65" stroke-width="1.5"></path>
        <path d="M-51.54 682.45L-48.01 825.93" stroke="#132e65" stroke-width="1.5"></path>
        <path d="M-51.54 682.45L94.4 842.35" stroke="#132e65" stroke-width="1.5"></path>
        <path d="M-51.54 682.45L196.95 804.53" stroke="#132e65" stroke-width="1.5"></path>
        <path d="M-48.01 825.93L-48.01 825.93" stroke="#132e65" stroke-width="1.5"></path>
        <path d="M-48.01 825.93L94.4 842.35" stroke="#132e65" stroke-width="1.5"></path>
        <path d="M-48.01 825.93L-102.79 1008.79" stroke="#132e65" stroke-width="1.5"></path>
        <path d="M-48.01 825.93L108.08 950.11" stroke="#132e65" stroke-width="1.5"></path>
        <path d="M-48.01 825.93L196.95 804.53" stroke="#132e65" stroke-width="1.5"></path>
        <path d="M-102.79 1008.79L-102.79 1008.79" stroke="#132e65" stroke-width="1.5"></path>
        <path d="M-102.79 1008.79L108.08 950.11" stroke="#132e65" stroke-width="1.5"></path>
        <path d="M-102.79 1008.79L94.4 842.35" stroke="#132e65" stroke-width="1.5"></path>
        <path d="M94.4 842.35L94.4 842.35" stroke="#132e65" stroke-width="1.5"></path>
        <path d="M94.4 842.35L108.08 950.11" stroke="#132e65" stroke-width="1.5"></path>
        <path d="M94.4 842.35L196.95 804.53" stroke="#132e65" stroke-width="1.5"></path>
        <path d="M94.4 842.35L196.5 973.63" stroke="#132e65" stroke-width="1.5"></path>
        <path d="M94.4 842.35L250.58 661.31" stroke="#132e65" stroke-width="1.5"></path>
        <path d="M108.08 950.11L108.08 950.11" stroke="#132e65" stroke-width="1.5"></path>
        <path d="M108.08 950.11L196.5 973.63" stroke="#132e65" stroke-width="1.5"></path>
        <path d="M108.08 950.11L196.95 804.53" stroke="#132e65" stroke-width="1.5"></path>
        <path d="M250.58 661.31L250.58 661.31" stroke="#132e65" stroke-width="1.5"></path>
        <path d="M250.58 661.31L349.84 552.95" stroke="#132e65" stroke-width="1.5"></path>
        <path d="M250.58 661.31L196.95 804.53" stroke="#132e65" stroke-width="1.5"></path>
        <path d="M250.58 661.31L411.67 659.94" stroke="#132e65" stroke-width="1.5"></path>
        <path d="M250.58 661.31L337.84 803.59" stroke="#132e65" stroke-width="1.5"></path>
        <path d="M196.95 804.53L196.95 804.53" stroke="#132e65" stroke-width="1.5"></path>
        <path d="M196.95 804.53L337.84 803.59" stroke="#132e65" stroke-width="1.5"></path>
        <path d="M196.5 973.63L196.5 973.63" stroke="#132e65" stroke-width="1.5"></path>
        <path d="M196.5 973.63L196.95 804.53" stroke="#132e65" stroke-width="1.5"></path>
        <path d="M196.5 973.63L404.59 944.71" stroke="#132e65" stroke-width="1.5"></path>
        <path d="M349.84 552.95L349.84 552.95" stroke="#132e65" stroke-width="1.5"></path>
        <path d="M349.84 552.95L411.67 659.94" stroke="#132e65" stroke-width="1.5"></path>
        <path d="M349.84 552.95L514.36 524.6" stroke="#132e65" stroke-width="1.5"></path>
        <path d="M411.67 659.94L411.67 659.94" stroke="#132e65" stroke-width="1.5"></path>
        <path d="M411.67 659.94L544.85 656.34" stroke="#132e65" stroke-width="1.5"></path>
        <path d="M411.67 659.94L337.84 803.59" stroke="#132e65" stroke-width="1.5"></path>
        <path d="M411.67 659.94L514.36 524.6" stroke="#132e65" stroke-width="1.5"></path>
        <path d="M411.67 659.94L542.19 846.01" stroke="#132e65" stroke-width="1.5"></path>
        <path d="M337.84 803.59L337.84 803.59" stroke="#132e65" stroke-width="1.5"></path>
        <path d="M337.84 803.59L404.59 944.71" stroke="#132e65" stroke-width="1.5"></path>
        <path d="M337.84 803.59L542.19 846.01" stroke="#132e65" stroke-width="1.5"></path>
        <path d="M337.84 803.59L196.5 973.63" stroke="#132e65" stroke-width="1.5"></path>
        <path d="M404.59 944.71L404.59 944.71" stroke="#132e65" stroke-width="1.5"></path>
        <path d="M404.59 944.71L513.07 1000.91" stroke="#132e65" stroke-width="1.5"></path>
        <path d="M404.59 944.71L542.19 846.01" stroke="#132e65" stroke-width="1.5"></path>
        <path d="M404.59 944.71L196.95 804.53" stroke="#132e65" stroke-width="1.5"></path>
        <path d="M404.59 944.71L654.3 971.8" stroke="#132e65" stroke-width="1.5"></path>
        <path d="M514.36 524.6L514.36 524.6" stroke="#132e65" stroke-width="1.5"></path>
        <path d="M514.36 524.6L544.85 656.34" stroke="#132e65" stroke-width="1.5"></path>
        <path d="M514.36 524.6L688.23 381.93" stroke="#132e65" stroke-width="1.5"></path>
        <path d="M544.85 656.34L544.85 656.34" stroke="#132e65" stroke-width="1.5"></path>
        <path d="M544.85 656.34L542.19 846.01" stroke="#132e65" stroke-width="1.5"></path>
        <path d="M544.85 656.34L712.48 788.04" stroke="#132e65" stroke-width="1.5"></path>
        <path d="M544.85 656.34L349.84 552.95" stroke="#132e65" stroke-width="1.5"></path>
        <path d="M544.85 656.34L337.84 803.59" stroke="#132e65" stroke-width="1.5"></path>
        <path d="M542.19 846.01L542.19 846.01" stroke="#132e65" stroke-width="1.5"></path>
        <path d="M542.19 846.01L513.07 1000.91" stroke="#132e65" stroke-width="1.5"></path>
        <path d="M542.19 846.01L654.3 971.8" stroke="#132e65" stroke-width="1.5"></path>
        <path d="M513.07 1000.91L513.07 1000.91" stroke="#132e65" stroke-width="1.5"></path>
        <path d="M513.07 1000.91L654.3 971.8" stroke="#132e65" stroke-width="1.5"></path>
        <path d="M513.07 1000.91L337.84 803.59" stroke="#132e65" stroke-width="1.5"></path>
        <path d="M513.07 1000.91L712.48 788.04" stroke="#132e65" stroke-width="1.5"></path>
        <path d="M688.23 381.93L688.23 381.93" stroke="#132e65" stroke-width="1.5"></path>
        <path d="M688.23 381.93L828.34 371.23" stroke="#132e65" stroke-width="1.5"></path>
        <path d="M688.23 381.93L837.89 226.8" stroke="#132e65" stroke-width="1.5"></path>
        <path d="M688.23 381.93L857.83 518.21" stroke="#132e65" stroke-width="1.5"></path>
        <path d="M688.23 381.93L945.24 398.81" stroke="#132e65" stroke-width="1.5"></path>
        <path d="M688.23 381.93L544.85 656.34" stroke="#132e65" stroke-width="1.5"></path>
        <path d="M712.48 788.04L712.48 788.04" stroke="#132e65" stroke-width="1.5"></path>
        <path d="M712.48 788.04L828.04 811.33" stroke="#132e65" stroke-width="1.5"></path>
        <path d="M654.3 971.8L654.3 971.8" stroke="#132e65" stroke-width="1.5"></path>
        <path d="M837.89 226.8L837.89 226.8" stroke="#132e65" stroke-width="1.5"></path>
        <path d="M837.89 226.8L828.34 371.23" stroke="#132e65" stroke-width="1.5"></path>
        <path d="M837.89 226.8L1003.38 239.28" stroke="#132e65" stroke-width="1.5"></path>
        <path d="M837.89 226.8L945.24 398.81" stroke="#132e65" stroke-width="1.5"></path>
        <path d="M837.89 226.8L1116.72 189.31" stroke="#132e65" stroke-width="1.5"></path>
        <path d="M837.89 226.8L946.32 -40.18" stroke="#132e65" stroke-width="1.5"></path>
        <path d="M828.34 371.23L828.34 371.23" stroke="#132e65" stroke-width="1.5"></path>
        <path d="M828.34 371.23L945.24 398.81" stroke="#132e65" stroke-width="1.5"></path>
        <path d="M857.83 518.21L857.83 518.21" stroke="#132e65" stroke-width="1.5"></path>
        <path d="M857.83 518.21L976.46 561.44" stroke="#132e65" stroke-width="1.5"></path>
        <path d="M857.83 518.21L945.24 398.81" stroke="#132e65" stroke-width="1.5"></path>
        <path d="M832.62 696.47L832.62 696.47" stroke="#132e65" stroke-width="1.5"></path>
        <path d="M832.62 696.47L828.04 811.33" stroke="#132e65" stroke-width="1.5"></path>
        <path d="M832.62 696.47L959 666.94" stroke="#132e65" stroke-width="1.5"></path>
        <path d="M832.62 696.47L712.48 788.04" stroke="#132e65" stroke-width="1.5"></path>
        <path d="M832.62 696.47L857.83 518.21" stroke="#132e65" stroke-width="1.5"></path>
        <path d="M832.62 696.47L976.46 561.44" stroke="#132e65" stroke-width="1.5"></path>
        <path d="M832.62 696.47L994.95 851.78" stroke="#132e65" stroke-width="1.5"></path>
        <path d="M828.04 811.33L828.04 811.33" stroke="#132e65" stroke-width="1.5"></path>
        <path d="M825.87 949.3L825.87 949.3" stroke="#132e65" stroke-width="1.5"></path>
        <path d="M825.87 949.3L828.04 811.33" stroke="#132e65" stroke-width="1.5"></path>
        <path d="M825.87 949.3L967.74 1008.82" stroke="#132e65" stroke-width="1.5"></path>
        <path d="M946.32 -40.18L946.32 -40.18" stroke="#132e65" stroke-width="1.5"></path>
        <path d="M946.32 -40.18L1128.32 64.17" stroke="#132e65" stroke-width="1.5"></path>
        <path d="M946.32 -40.18L1003.38 239.28" stroke="#132e65" stroke-width="1.5"></path>
        <path d="M946.32 -40.18L1116.72 189.31" stroke="#132e65" stroke-width="1.5"></path>
        <path d="M1003.38 239.28L1003.38 239.28" stroke="#132e65" stroke-width="1.5"></path>
        <path d="M1003.38 239.28L1116.72 189.31" stroke="#132e65" stroke-width="1.5"></path>
        <path d="M1003.38 239.28L945.24 398.81" stroke="#132e65" stroke-width="1.5"></path>
        <path d="M945.24 398.81L945.24 398.81" stroke="#132e65" stroke-width="1.5"></path>
        <path d="M945.24 398.81L976.46 561.44" stroke="#132e65" stroke-width="1.5"></path>
        <path d="M976.46 561.44L976.46 561.44" stroke="#132e65" stroke-width="1.5"></path>
        <path d="M976.46 561.44L959 666.94" stroke="#132e65" stroke-width="1.5"></path>
        <path d="M976.46 561.44L1119.34 645.06" stroke="#132e65" stroke-width="1.5"></path>
        <path d="M976.46 561.44L1145.11 527.94" stroke="#132e65" stroke-width="1.5"></path>
        <path d="M959 666.94L959 666.94" stroke="#132e65" stroke-width="1.5"></path>
        <path d="M994.95 851.78L994.95 851.78" stroke="#132e65" stroke-width="1.5"></path>
        <path d="M994.95 851.78L1153.27 855.5" stroke="#132e65" stroke-width="1.5"></path>
        <path d="M994.95 851.78L967.74 1008.82" stroke="#132e65" stroke-width="1.5"></path>
        <path d="M967.74 1008.82L967.74 1008.82" stroke="#132e65" stroke-width="1.5"></path>
        <path d="M967.74 1008.82L1147.85 1007.75" stroke="#132e65" stroke-width="1.5"></path>
        <path d="M1128.32 64.17L1128.32 64.17" stroke="#132e65" stroke-width="1.5"></path>
        <path d="M1128.32 64.17L1250.32 39.95" stroke="#132e65" stroke-width="1.5"></path>
        <path d="M1116.72 189.31L1116.72 189.31" stroke="#132e65" stroke-width="1.5"></path>
        <path d="M1116.72 189.31L1128.32 64.17" stroke="#132e65" stroke-width="1.5"></path>
        <path d="M1116.72 189.31L1250.32 39.95" stroke="#132e65" stroke-width="1.5"></path>
        <path d="M1116.72 189.31L1270.75 387.03" stroke="#132e65" stroke-width="1.5"></path>
        <path d="M1116.72 189.31L945.24 398.81" stroke="#132e65" stroke-width="1.5"></path>
        <path d="M1145.11 527.94L1145.11 527.94" stroke="#132e65" stroke-width="1.5"></path>
        <path d="M1145.11 527.94L1119.34 645.06" stroke="#132e65" stroke-width="1.5"></path>
        <path d="M1145.11 527.94L1270.75 387.03" stroke="#132e65" stroke-width="1.5"></path>
        <path d="M1145.11 527.94L1302.73 692.02" stroke="#132e65" stroke-width="1.5"></path>
        <path d="M1119.34 645.06L1119.34 645.06" stroke="#132e65" stroke-width="1.5"></path>
        <path d="M1119.34 645.06L959 666.94" stroke="#132e65" stroke-width="1.5"></path>
        <path d="M1153.27 855.5L1153.27 855.5" stroke="#132e65" stroke-width="1.5"></path>
        <path d="M1153.27 855.5L1147.85 1007.75" stroke="#132e65" stroke-width="1.5"></path>
        <path d="M1153.27 855.5L1310.65 823.57" stroke="#132e65" stroke-width="1.5"></path>
        <path d="M1153.27 855.5L1305.23 944.29" stroke="#132e65" stroke-width="1.5"></path>
        <path d="M1153.27 855.5L1119.34 645.06" stroke="#132e65" stroke-width="1.5"></path>
        <path d="M1147.85 1007.75L1147.85 1007.75" stroke="#132e65" stroke-width="1.5"></path>
        <path d="M1147.85 1007.75L1305.23 944.29" stroke="#132e65" stroke-width="1.5"></path>
        <path d="M1147.85 1007.75L994.95 851.78" stroke="#132e65" stroke-width="1.5"></path>
        <path d="M1239.64 -102.68L1239.64 -102.68" stroke="#132e65" stroke-width="1.5"></path>
        <path d="M1239.64 -102.68L1250.32 39.95" stroke="#132e65" stroke-width="1.5"></path>
        <path d="M1239.64 -102.68L1436.05 -104.7" stroke="#132e65" stroke-width="1.5"></path>
        <path d="M1239.64 -102.68L1128.32 64.17" stroke="#132e65" stroke-width="1.5"></path>
        <path d="M1239.64 -102.68L1446.3 41.19" stroke="#132e65" stroke-width="1.5"></path>
        <path d="M1239.64 -102.68L946.32 -40.18" stroke="#132e65" stroke-width="1.5"></path>
        <path d="M1239.64 -102.68L1539.56 -79.06" stroke="#132e65" stroke-width="1.5"></path>
        <path d="M1250.32 39.95L1250.32 39.95" stroke="#132e65" stroke-width="1.5"></path>
        <path d="M1250.32 39.95L1446.3 41.19" stroke="#132e65" stroke-width="1.5"></path>
        <path d="M1250.32 39.95L1436.05 -104.7" stroke="#132e65" stroke-width="1.5"></path>
        <path d="M1250.32 39.95L1443.88 214.39" stroke="#132e65" stroke-width="1.5"></path>
        <path d="M1270.75 387.03L1270.75 387.03" stroke="#132e65" stroke-width="1.5"></path>
        <path d="M1270.75 387.03L1431.25 353.59" stroke="#132e65" stroke-width="1.5"></path>
        <path d="M1270.75 387.03L1388.16 513.27" stroke="#132e65" stroke-width="1.5"></path>
        <path d="M1270.75 387.03L1443.88 214.39" stroke="#132e65" stroke-width="1.5"></path>
        <path d="M1302.73 692.02L1302.73 692.02" stroke="#132e65" stroke-width="1.5"></path>
        <path d="M1302.73 692.02L1310.65 823.57" stroke="#132e65" stroke-width="1.5"></path>
        <path d="M1302.73 692.02L1452.11 696.04" stroke="#132e65" stroke-width="1.5"></path>
        <path d="M1302.73 692.02L1401.31 826.62" stroke="#132e65" stroke-width="1.5"></path>
        <path d="M1302.73 692.02L1119.34 645.06" stroke="#132e65" stroke-width="1.5"></path>
        <path d="M1302.73 692.02L1388.16 513.27" stroke="#132e65" stroke-width="1.5"></path>
        <path d="M1302.73 692.02L1153.27 855.5" stroke="#132e65" stroke-width="1.5"></path>
        <path d="M1310.65 823.57L1310.65 823.57" stroke="#132e65" stroke-width="1.5"></path>
        <path d="M1310.65 823.57L1401.31 826.62" stroke="#132e65" stroke-width="1.5"></path>
        <path d="M1310.65 823.57L1305.23 944.29" stroke="#132e65" stroke-width="1.5"></path>
        <path d="M1310.65 823.57L1452.11 696.04" stroke="#132e65" stroke-width="1.5"></path>
        <path d="M1310.65 823.57L1447.11 1007.17" stroke="#132e65" stroke-width="1.5"></path>
        <path d="M1305.23 944.29L1305.23 944.29" stroke="#132e65" stroke-width="1.5"></path>
        <path d="M1305.23 944.29L1401.31 826.62" stroke="#132e65" stroke-width="1.5"></path>
        <path d="M1305.23 944.29L1447.11 1007.17" stroke="#132e65" stroke-width="1.5"></path>
        <path d="M1436.05 -104.7L1436.05 -104.7" stroke="#132e65" stroke-width="1.5"></path>
        <path d="M1436.05 -104.7L1539.56 -79.06" stroke="#132e65" stroke-width="1.5"></path>
        <path d="M1436.05 -104.7L1446.3 41.19" stroke="#132e65" stroke-width="1.5"></path>
        <path d="M1436.05 -104.7L1569.14 78.03" stroke="#132e65" stroke-width="1.5"></path>
        <path d="M1446.3 41.19L1446.3 41.19" stroke="#132e65" stroke-width="1.5"></path>
        <path d="M1446.3 41.19L1569.14 78.03" stroke="#132e65" stroke-width="1.5"></path>
        <path d="M1446.3 41.19L1539.56 -79.06" stroke="#132e65" stroke-width="1.5"></path>
        <path d="M1446.3 41.19L1443.88 214.39" stroke="#132e65" stroke-width="1.5"></path>
        <path d="M1446.3 41.19L1591.64 238" stroke="#132e65" stroke-width="1.5"></path>
        <path d="M1443.88 214.39L1443.88 214.39" stroke="#132e65" stroke-width="1.5"></path>
        <path d="M1443.88 214.39L1431.25 353.59" stroke="#132e65" stroke-width="1.5"></path>
        <path d="M1443.88 214.39L1591.64 238" stroke="#132e65" stroke-width="1.5"></path>
        <path d="M1443.88 214.39L1538.07 373.03" stroke="#132e65" stroke-width="1.5"></path>
        <path d="M1431.25 353.59L1431.25 353.59" stroke="#132e65" stroke-width="1.5"></path>
        <path d="M1431.25 353.59L1538.07 373.03" stroke="#132e65" stroke-width="1.5"></path>
        <path d="M1431.25 353.59L1388.16 513.27" stroke="#132e65" stroke-width="1.5"></path>
        <path d="M1431.25 353.59L1550.34 507.99" stroke="#132e65" stroke-width="1.5"></path>
        <path d="M1388.16 513.27L1388.16 513.27" stroke="#132e65" stroke-width="1.5"></path>
        <path d="M1388.16 513.27L1550.34 507.99" stroke="#132e65" stroke-width="1.5"></path>
        <path d="M1388.16 513.27L1452.11 696.04" stroke="#132e65" stroke-width="1.5"></path>
        <path d="M1452.11 696.04L1452.11 696.04" stroke="#132e65" stroke-width="1.5"></path>
        <path d="M1452.11 696.04L1542.94 671.82" stroke="#132e65" stroke-width="1.5"></path>
        <path d="M1452.11 696.04L1401.31 826.62" stroke="#132e65" stroke-width="1.5"></path>
        <path d="M1401.31 826.62L1401.31 826.62" stroke="#132e65" stroke-width="1.5"></path>
        <path d="M1401.31 826.62L1447.11 1007.17" stroke="#132e65" stroke-width="1.5"></path>
        <path d="M1401.31 826.62L1542.94 671.82" stroke="#132e65" stroke-width="1.5"></path>
        <path d="M1447.11 1007.17L1447.11 1007.17" stroke="#132e65" stroke-width="1.5"></path>
        <path d="M1447.11 1007.17L1572.94 976.24" stroke="#132e65" stroke-width="1.5"></path>
        <path d="M1447.11 1007.17L1147.85 1007.75" stroke="#132e65" stroke-width="1.5"></path>
        <path d="M1539.56 -79.06L1539.56 -79.06" stroke="#132e65" stroke-width="1.5"></path>
        <path d="M1539.56 -79.06L1569.14 78.03" stroke="#132e65" stroke-width="1.5"></path>
        <path d="M1539.56 -79.06L1443.88 214.39" stroke="#132e65" stroke-width="1.5"></path>
        <path d="M1569.14 78.03L1569.14 78.03" stroke="#132e65" stroke-width="1.5"></path>
        <path d="M1569.14 78.03L1591.64 238" stroke="#132e65" stroke-width="1.5"></path>
        <path d="M1569.14 78.03L1443.88 214.39" stroke="#132e65" stroke-width="1.5"></path>
        <path d="M1569.14 78.03L1538.07 373.03" stroke="#132e65" stroke-width="1.5"></path>
        <path d="M1591.64 238L1591.64 238" stroke="#132e65" stroke-width="1.5"></path>
        <path d="M1591.64 238L1538.07 373.03" stroke="#132e65" stroke-width="1.5"></path>
        <path d="M1591.64 238L1431.25 353.59" stroke="#132e65" stroke-width="1.5"></path>
        <path d="M1591.64 238L1550.34 507.99" stroke="#132e65" stroke-width="1.5"></path>
        <path d="M1538.07 373.03L1538.07 373.03" stroke="#132e65" stroke-width="1.5"></path>
        <path d="M1538.07 373.03L1550.34 507.99" stroke="#132e65" stroke-width="1.5"></path>
        <path d="M1550.34 507.99L1550.34 507.99" stroke="#132e65" stroke-width="1.5"></path>
        <path d="M1550.34 507.99L1542.94 671.82" stroke="#132e65" stroke-width="1.5"></path>
        <path d="M1542.94 671.82L1542.94 671.82" stroke="#132e65" stroke-width="1.5"></path>
        <path d="M1542.94 671.82L1388.16 513.27" stroke="#132e65" stroke-width="1.5"></path>
        <path d="M1542.94 671.82L1302.73 692.02" stroke="#132e65" stroke-width="1.5"></path>
        <path d="M1542.94 671.82L1310.65 823.57" stroke="#132e65" stroke-width="1.5"></path>
        <path d="M1572.94 976.24L1572.94 976.24" stroke="#132e65" stroke-width="1.5"></path>
        <path d="M1572.94 976.24L1401.31 826.62" stroke="#132e65" stroke-width="1.5"></path>
        <path d="M1572.94 976.24L1305.23 944.29" stroke="#132e65" stroke-width="1.5"></path>
        <circle r="5" cx="-64.39" cy="543.21" fill="#132e65"></circle>
        <circle r="5" cx="-51.54" cy="682.45" fill="#132e65"></circle>
        <circle r="5" cx="-48.01" cy="825.93" fill="#132e65"></circle>
        <circle r="5" cx="-102.79" cy="1008.79" fill="#132e65"></circle>
        <circle r="5" cx="94.4" cy="842.35" fill="#132e65"></circle>
        <circle r="5" cx="108.08" cy="950.11" fill="#132e65"></circle>
        <circle r="5" cx="250.58" cy="661.31" fill="#132e65"></circle>
        <circle r="5" cx="196.95" cy="804.53" fill="#132e65"></circle>
        <circle r="5" cx="196.5" cy="973.63" fill="#132e65"></circle>
        <circle r="5" cx="349.84" cy="552.95" fill="#132e65"></circle>
        <circle r="5" cx="411.67" cy="659.94" fill="#132e65"></circle>
        <circle r="5" cx="337.84" cy="803.59" fill="#132e65"></circle>
        <circle r="5" cx="404.59" cy="944.71" fill="#132e65"></circle>
        <circle r="5" cx="514.36" cy="524.6" fill="#132e65"></circle>
        <circle r="5" cx="544.85" cy="656.34" fill="#132e65"></circle>
        <circle r="5" cx="542.19" cy="846.01" fill="#132e65"></circle>
        <circle r="5" cx="513.07" cy="1000.91" fill="#132e65"></circle>
        <circle r="5" cx="688.23" cy="381.93" fill="#132e65"></circle>
        <circle r="5" cx="712.48" cy="788.04" fill="#132e65"></circle>
        <circle r="5" cx="654.3" cy="971.8" fill="#132e65"></circle>
        <circle r="5" cx="837.89" cy="226.8" fill="#132e65"></circle>
        <circle r="5" cx="828.34" cy="371.23" fill="#132e65"></circle>
        <circle r="5" cx="857.83" cy="518.21" fill="#132e65"></circle>
        <circle r="5" cx="832.62" cy="696.47" fill="#132e65"></circle>
        <circle r="5" cx="828.04" cy="811.33" fill="#132e65"></circle>
        <circle r="5" cx="825.87" cy="949.3" fill="#132e65"></circle>
        <circle r="5" cx="946.32" cy="-40.18" fill="#132e65"></circle>
        <circle r="5" cx="1003.38" cy="239.28" fill="#132e65"></circle>
        <circle r="5" cx="945.24" cy="398.81" fill="#132e65"></circle>
        <circle r="5" cx="976.46" cy="561.44" fill="#132e65"></circle>
        <circle r="5" cx="959" cy="666.94" fill="#132e65"></circle>
        <circle r="5" cx="994.95" cy="851.78" fill="#132e65"></circle>
        <circle r="5" cx="967.74" cy="1008.82" fill="#132e65"></circle>
        <circle r="5" cx="1128.32" cy="64.17" fill="#132e65"></circle>
        <circle r="5" cx="1116.72" cy="189.31" fill="#132e65"></circle>
        <circle r="5" cx="1145.11" cy="527.94" fill="#132e65"></circle>
        <circle r="5" cx="1119.34" cy="645.06" fill="#132e65"></circle>
        <circle r="5" cx="1153.27" cy="855.5" fill="#132e65"></circle>
        <circle r="5" cx="1147.85" cy="1007.75" fill="#132e65"></circle>
        <circle r="5" cx="1239.64" cy="-102.68" fill="#132e65"></circle>
        <circle r="5" cx="1250.32" cy="39.95" fill="#132e65"></circle>
        <circle r="5" cx="1270.75" cy="387.03" fill="#132e65"></circle>
        <circle r="5" cx="1302.73" cy="692.02" fill="#132e65"></circle>
        <circle r="5" cx="1310.65" cy="823.57" fill="#132e65"></circle>
        <circle r="5" cx="1305.23" cy="944.29" fill="#132e65"></circle>
        <circle r="5" cx="1436.05" cy="-104.7" fill="#132e65"></circle>
        <circle r="5" cx="1446.3" cy="41.19" fill="#132e65"></circle>
        <circle r="5" cx="1443.88" cy="214.39" fill="#132e65"></circle>
        <circle r="5" cx="1431.25" cy="353.59" fill="#132e65"></circle>
        <circle r="5" cx="1388.16" cy="513.27" fill="#132e65"></circle>
        <circle r="5" cx="1452.11" cy="696.04" fill="#132e65"></circle>
        <circle r="5" cx="1401.31" cy="826.62" fill="#132e65"></circle>
        <circle r="5" cx="1447.11" cy="1007.17" fill="#132e65"></circle>
        <circle r="5" cx="1539.56" cy="-79.06" fill="#132e65"></circle>
        <circle r="5" cx="1569.14" cy="78.03" fill="#132e65"></circle>
        <circle r="5" cx="1591.64" cy="238" fill="#132e65"></circle>
        <circle r="5" cx="1538.07" cy="373.03" fill="#132e65"></circle>
        <circle r="5" cx="1550.34" cy="507.99" fill="#132e65"></circle>
        <circle r="5" cx="1542.94" cy="671.82" fill="#132e65"></circle>
        <circle r="5" cx="1572.94" cy="976.24" fill="#132e65"></circle>
        <path d="M-39.71 957.32L-39.71 957.32" stroke="hsl(196.89999999999998, 87.7%, 37.2%)" stroke-width="1.5"></path>
        <path d="M-39.71 957.32L48.23 977.71" stroke="hsl(196.89999999999998, 87.7%, 37.2%)" stroke-width="1.5"></path>
        <path d="M-39.71 957.32L-74.01 825.21" stroke="hsl(196.89999999999998, 87.7%, 37.2%)" stroke-width="1.5"></path>
        <path d="M-39.71 957.32L98.64 852.76" stroke="hsl(196.89999999999998, 87.7%, 37.2%)" stroke-width="1.5"></path>
        <path d="M-39.71 957.32L208.14 955.67" stroke="hsl(196.89999999999998, 87.7%, 37.2%)" stroke-width="1.5"></path>
        <path d="M380.35 698.72L380.35 698.72" stroke="hsl(196.89999999999998, 87.7%, 37.2%)" stroke-width="1.5"></path>
        <path d="M380.35 698.72L364.17 811.66" stroke="hsl(196.89999999999998, 87.7%, 37.2%)" stroke-width="1.5"></path>
        <path d="M380.35 698.72L511.73 837.56" stroke="hsl(196.89999999999998, 87.7%, 37.2%)" stroke-width="1.5"></path>
        <path d="M380.35 698.72L225.31 836.42" stroke="hsl(196.89999999999998, 87.7%, 37.2%)" stroke-width="1.5"></path>
        <path d="M380.35 698.72L343.03 982.15" stroke="hsl(196.89999999999998, 87.7%, 37.2%)" stroke-width="1.5"></path>
        <path d="M343.03 982.15L343.03 982.15" stroke="hsl(196.89999999999998, 87.7%, 37.2%)" stroke-width="1.5"></path>
        <path d="M343.03 982.15L208.14 955.67" stroke="hsl(196.89999999999998, 87.7%, 37.2%)" stroke-width="1.5"></path>
        <path d="M343.03 982.15L364.17 811.66" stroke="hsl(196.89999999999998, 87.7%, 37.2%)" stroke-width="1.5"></path>
        <path d="M343.03 982.15L225.31 836.42" stroke="hsl(196.89999999999998, 87.7%, 37.2%)" stroke-width="1.5"></path>
        <path d="M343.03 982.15L537.3 1008.72" stroke="hsl(196.89999999999998, 87.7%, 37.2%)" stroke-width="1.5"></path>
        <path d="M811.27 542.05L811.27 542.05" stroke="hsl(196.89999999999998, 87.7%, 37.2%)" stroke-width="1.5"></path>
        <path d="M811.27 542.05L938.31 559.16" stroke="hsl(196.89999999999998, 87.7%, 37.2%)" stroke-width="1.5"></path>
        <path d="M811.27 542.05L808.86 686.94" stroke="hsl(196.89999999999998, 87.7%, 37.2%)" stroke-width="1.5"></path>
        <path d="M811.27 542.05L707.24 710.71" stroke="hsl(196.89999999999998, 87.7%, 37.2%)" stroke-width="1.5"></path>
        <path d="M811.27 542.05L957.02 704" stroke="hsl(196.89999999999998, 87.7%, 37.2%)" stroke-width="1.5"></path>
        <path d="M811.27 542.05L797.3 821.59" stroke="hsl(196.89999999999998, 87.7%, 37.2%)" stroke-width="1.5"></path>
        <path d="M981.15 855.48L981.15 855.48" stroke="hsl(196.89999999999998, 87.7%, 37.2%)" stroke-width="1.5"></path>
        <path d="M981.15 855.48L1095.81 806.24" stroke="hsl(196.89999999999998, 87.7%, 37.2%)" stroke-width="1.5"></path>
        <path d="M981.15 855.48L956.32 993.77" stroke="hsl(196.89999999999998, 87.7%, 37.2%)" stroke-width="1.5"></path>
        <path d="M981.15 855.48L957.02 704" stroke="hsl(196.89999999999998, 87.7%, 37.2%)" stroke-width="1.5"></path>
        <path d="M981.15 855.48L797.3 821.59" stroke="hsl(196.89999999999998, 87.7%, 37.2%)" stroke-width="1.5"></path>
        <path d="M1095.81 806.24L1095.81 806.24" stroke="hsl(196.89999999999998, 87.7%, 37.2%)" stroke-width="1.5"></path>
        <path d="M1095.81 806.24L957.02 704" stroke="hsl(196.89999999999998, 87.7%, 37.2%)" stroke-width="1.5"></path>
        <path d="M1095.81 806.24L1293.68 793.39" stroke="hsl(196.89999999999998, 87.7%, 37.2%)" stroke-width="1.5"></path>
        <path d="M1095.81 806.24L1143.78 1011.96" stroke="hsl(196.89999999999998, 87.7%, 37.2%)" stroke-width="1.5"></path>
        <path d="M1095.81 806.24L1300.27 703.36" stroke="hsl(196.89999999999998, 87.7%, 37.2%)" stroke-width="1.5"></path>
        <path d="M1258.67 245.47L1258.67 245.47" stroke="hsl(196.89999999999998, 87.7%, 37.2%)" stroke-width="1.5"></path>
        <path d="M1258.67 245.47L1244.71 388.07" stroke="hsl(196.89999999999998, 87.7%, 37.2%)" stroke-width="1.5"></path>
        <path d="M1258.67 245.47L1126.28 376.63" stroke="hsl(196.89999999999998, 87.7%, 37.2%)" stroke-width="1.5"></path>
        <path d="M1258.67 245.47L1440.33 191.19" stroke="hsl(196.89999999999998, 87.7%, 37.2%)" stroke-width="1.5"></path>
        <path d="M1444.75 85.36L1444.75 85.36" stroke="hsl(196.89999999999998, 87.7%, 37.2%)" stroke-width="1.5"></path>
        <path d="M1444.75 85.36L1440.33 191.19" stroke="hsl(196.89999999999998, 87.7%, 37.2%)" stroke-width="1.5"></path>
        <path d="M1444.75 85.36L1572.98 79.39" stroke="hsl(196.89999999999998, 87.7%, 37.2%)" stroke-width="1.5"></path>
        <path d="M1396.66 540.36L1396.66 540.36" stroke="hsl(196.89999999999998, 87.7%, 37.2%)" stroke-width="1.5"></path>
        <path d="M1396.66 540.36L1237.78 534.24" stroke="hsl(196.89999999999998, 87.7%, 37.2%)" stroke-width="1.5"></path>
        <path d="M1396.66 540.36L1407.57 705.64" stroke="hsl(196.89999999999998, 87.7%, 37.2%)" stroke-width="1.5"></path>
        <path d="M1396.66 540.36L1435.81 374.38" stroke="hsl(196.89999999999998, 87.7%, 37.2%)" stroke-width="1.5"></path>
        <path d="M1396.66 540.36L1568.48 516" stroke="hsl(196.89999999999998, 87.7%, 37.2%)" stroke-width="1.5"></path>
        <path d="M1572.98 79.39L1572.98 79.39" stroke="hsl(196.89999999999998, 87.7%, 37.2%)" stroke-width="1.5"></path>
        <path d="M1572.98 79.39L1570.01 202.59" stroke="hsl(196.89999999999998, 87.7%, 37.2%)" stroke-width="1.5"></path>
        <path d="M1572.98 79.39L1592.48 -48.77" stroke="hsl(196.89999999999998, 87.7%, 37.2%)" stroke-width="1.5"></path>
        <path d="M1572.98 79.39L1440.33 191.19" stroke="hsl(196.89999999999998, 87.7%, 37.2%)" stroke-width="1.5"></path>
        <path d="M1572.98 79.39L1406.71 -39.7" stroke="hsl(196.89999999999998, 87.7%, 37.2%)" stroke-width="1.5"></path>
        <path d="M1570.01 202.59L1570.01 202.59" stroke="hsl(196.89999999999998, 87.7%, 37.2%)" stroke-width="1.5"></path>
        <path d="M1570.01 202.59L1440.33 191.19" stroke="hsl(196.89999999999998, 87.7%, 37.2%)" stroke-width="1.5"></path>
        <path d="M1570.01 202.59L1560.62 354.11" stroke="hsl(196.89999999999998, 87.7%, 37.2%)" stroke-width="1.5"></path>
        <path d="M1568.48 516L1568.48 516" stroke="hsl(196.89999999999998, 87.7%, 37.2%)" stroke-width="1.5"></path>
        <path d="M1568.48 516L1568.5 670.58" stroke="hsl(196.89999999999998, 87.7%, 37.2%)" stroke-width="1.5"></path>
        <path d="M1568.48 516L1560.62 354.11" stroke="hsl(196.89999999999998, 87.7%, 37.2%)" stroke-width="1.5"></path>
        <path d="M1560.31 974.57L1560.31 974.57" stroke="hsl(196.89999999999998, 87.7%, 37.2%)" stroke-width="1.5"></path>
        <path d="M1560.31 974.57L1435.99 980.3" stroke="hsl(196.89999999999998, 87.7%, 37.2%)" stroke-width="1.5"></path>
        <path d="M1560.31 974.57L1435.02 858.09" stroke="hsl(196.89999999999998, 87.7%, 37.2%)" stroke-width="1.5"></path>
        <path d="M-74.01 825.21L-74.01 825.21" stroke="hsl(196.89999999999998, 87.7%, 37.2%)" stroke-width="1.5"></path>
        <path d="M-74.01 825.21L98.64 852.76" stroke="hsl(196.89999999999998, 87.7%, 37.2%)" stroke-width="1.5"></path>
        <path d="M98.64 852.76L98.64 852.76" stroke="hsl(196.89999999999998, 87.7%, 37.2%)" stroke-width="1.5"></path>
        <path d="M98.64 852.76L225.31 836.42" stroke="hsl(196.89999999999998, 87.7%, 37.2%)" stroke-width="1.5"></path>
        <path d="M98.64 852.76L48.23 977.71" stroke="hsl(196.89999999999998, 87.7%, 37.2%)" stroke-width="1.5"></path>
        <path d="M98.64 852.76L208.14 955.67" stroke="hsl(196.89999999999998, 87.7%, 37.2%)" stroke-width="1.5"></path>
        <path d="M48.23 977.71L48.23 977.71" stroke="hsl(196.89999999999998, 87.7%, 37.2%)" stroke-width="1.5"></path>
        <path d="M48.23 977.71L208.14 955.67" stroke="hsl(196.89999999999998, 87.7%, 37.2%)" stroke-width="1.5"></path>
        <path d="M48.23 977.71L-74.01 825.21" stroke="hsl(196.89999999999998, 87.7%, 37.2%)" stroke-width="1.5"></path>
        <path d="M48.23 977.71L225.31 836.42" stroke="hsl(196.89999999999998, 87.7%, 37.2%)" stroke-width="1.5"></path>
        <path d="M225.31 836.42L225.31 836.42" stroke="hsl(196.89999999999998, 87.7%, 37.2%)" stroke-width="1.5"></path>
        <path d="M225.31 836.42L208.14 955.67" stroke="hsl(196.89999999999998, 87.7%, 37.2%)" stroke-width="1.5"></path>
        <path d="M225.31 836.42L364.17 811.66" stroke="hsl(196.89999999999998, 87.7%, 37.2%)" stroke-width="1.5"></path>
        <path d="M208.14 955.67L208.14 955.67" stroke="hsl(196.89999999999998, 87.7%, 37.2%)" stroke-width="1.5"></path>
        <path d="M364.17 811.66L364.17 811.66" stroke="hsl(196.89999999999998, 87.7%, 37.2%)" stroke-width="1.5"></path>
        <path d="M364.17 811.66L511.73 837.56" stroke="hsl(196.89999999999998, 87.7%, 37.2%)" stroke-width="1.5"></path>
        <path d="M511.73 837.56L511.73 837.56" stroke="hsl(196.89999999999998, 87.7%, 37.2%)" stroke-width="1.5"></path>
        <path d="M511.73 837.56L537.3 1008.72" stroke="hsl(196.89999999999998, 87.7%, 37.2%)" stroke-width="1.5"></path>
        <path d="M537.3 1008.72L537.3 1008.72" stroke="hsl(196.89999999999998, 87.7%, 37.2%)" stroke-width="1.5"></path>
        <path d="M537.3 1008.72L661.85 986.01" stroke="hsl(196.89999999999998, 87.7%, 37.2%)" stroke-width="1.5"></path>
        <path d="M537.3 1008.72L364.17 811.66" stroke="hsl(196.89999999999998, 87.7%, 37.2%)" stroke-width="1.5"></path>
        <path d="M537.3 1008.72L797.3 821.59" stroke="hsl(196.89999999999998, 87.7%, 37.2%)" stroke-width="1.5"></path>
        <path d="M537.3 1008.72L208.14 955.67" stroke="hsl(196.89999999999998, 87.7%, 37.2%)" stroke-width="1.5"></path>
        <path d="M707.24 710.71L707.24 710.71" stroke="hsl(196.89999999999998, 87.7%, 37.2%)" stroke-width="1.5"></path>
        <path d="M707.24 710.71L808.86 686.94" stroke="hsl(196.89999999999998, 87.7%, 37.2%)" stroke-width="1.5"></path>
        <path d="M707.24 710.71L797.3 821.59" stroke="hsl(196.89999999999998, 87.7%, 37.2%)" stroke-width="1.5"></path>
        <path d="M661.85 986.01L661.85 986.01" stroke="hsl(196.89999999999998, 87.7%, 37.2%)" stroke-width="1.5"></path>
        <path d="M661.85 986.01L511.73 837.56" stroke="hsl(196.89999999999998, 87.7%, 37.2%)" stroke-width="1.5"></path>
        <path d="M661.85 986.01L797.3 821.59" stroke="hsl(196.89999999999998, 87.7%, 37.2%)" stroke-width="1.5"></path>
        <path d="M661.85 986.01L707.24 710.71" stroke="hsl(196.89999999999998, 87.7%, 37.2%)" stroke-width="1.5"></path>
        <path d="M808.86 686.94L808.86 686.94" stroke="hsl(196.89999999999998, 87.7%, 37.2%)" stroke-width="1.5"></path>
        <path d="M808.86 686.94L797.3 821.59" stroke="hsl(196.89999999999998, 87.7%, 37.2%)" stroke-width="1.5"></path>
        <path d="M808.86 686.94L957.02 704" stroke="hsl(196.89999999999998, 87.7%, 37.2%)" stroke-width="1.5"></path>
        <path d="M808.86 686.94L938.31 559.16" stroke="hsl(196.89999999999998, 87.7%, 37.2%)" stroke-width="1.5"></path>
        <path d="M797.3 821.59L797.3 821.59" stroke="hsl(196.89999999999998, 87.7%, 37.2%)" stroke-width="1.5"></path>
        <path d="M797.3 821.59L957.02 704" stroke="hsl(196.89999999999998, 87.7%, 37.2%)" stroke-width="1.5"></path>
        <path d="M938.31 559.16L938.31 559.16" stroke="hsl(196.89999999999998, 87.7%, 37.2%)" stroke-width="1.5"></path>
        <path d="M938.31 559.16L957.02 704" stroke="hsl(196.89999999999998, 87.7%, 37.2%)" stroke-width="1.5"></path>
        <path d="M938.31 559.16L1130.25 555.83" stroke="hsl(196.89999999999998, 87.7%, 37.2%)" stroke-width="1.5"></path>
        <path d="M957.02 704L957.02 704" stroke="hsl(196.89999999999998, 87.7%, 37.2%)" stroke-width="1.5"></path>
        <path d="M956.32 993.77L956.32 993.77" stroke="hsl(196.89999999999998, 87.7%, 37.2%)" stroke-width="1.5"></path>
        <path d="M956.32 993.77L1143.78 1011.96" stroke="hsl(196.89999999999998, 87.7%, 37.2%)" stroke-width="1.5"></path>
        <path d="M956.32 993.77L1095.81 806.24" stroke="hsl(196.89999999999998, 87.7%, 37.2%)" stroke-width="1.5"></path>
        <path d="M956.32 993.77L797.3 821.59" stroke="hsl(196.89999999999998, 87.7%, 37.2%)" stroke-width="1.5"></path>
        <path d="M956.32 993.77L957.02 704" stroke="hsl(196.89999999999998, 87.7%, 37.2%)" stroke-width="1.5"></path>
        <path d="M956.32 993.77L661.85 986.01" stroke="hsl(196.89999999999998, 87.7%, 37.2%)" stroke-width="1.5"></path>
        <path d="M1126.28 376.63L1126.28 376.63" stroke="hsl(196.89999999999998, 87.7%, 37.2%)" stroke-width="1.5"></path>
        <path d="M1126.28 376.63L1244.71 388.07" stroke="hsl(196.89999999999998, 87.7%, 37.2%)" stroke-width="1.5"></path>
        <path d="M1126.28 376.63L1130.25 555.83" stroke="hsl(196.89999999999998, 87.7%, 37.2%)" stroke-width="1.5"></path>
        <path d="M1130.25 555.83L1130.25 555.83" stroke="hsl(196.89999999999998, 87.7%, 37.2%)" stroke-width="1.5"></path>
        <path d="M1130.25 555.83L1237.78 534.24" stroke="hsl(196.89999999999998, 87.7%, 37.2%)" stroke-width="1.5"></path>
        <path d="M1130.25 555.83L1244.71 388.07" stroke="hsl(196.89999999999998, 87.7%, 37.2%)" stroke-width="1.5"></path>
        <path d="M1130.25 555.83L1300.27 703.36" stroke="hsl(196.89999999999998, 87.7%, 37.2%)" stroke-width="1.5"></path>
        <path d="M1130.25 555.83L957.02 704" stroke="hsl(196.89999999999998, 87.7%, 37.2%)" stroke-width="1.5"></path>
        <path d="M1143.78 1011.96L1143.78 1011.96" stroke="hsl(196.89999999999998, 87.7%, 37.2%)" stroke-width="1.5"></path>
        <path d="M1143.78 1011.96L1253.15 983.49" stroke="hsl(196.89999999999998, 87.7%, 37.2%)" stroke-width="1.5"></path>
        <path d="M1295.33 -78.67L1295.33 -78.67" stroke="hsl(196.89999999999998, 87.7%, 37.2%)" stroke-width="1.5"></path>
        <path d="M1295.33 -78.67L1406.71 -39.7" stroke="hsl(196.89999999999998, 87.7%, 37.2%)" stroke-width="1.5"></path>
        <path d="M1295.33 -78.67L1257.23 44.38" stroke="hsl(196.89999999999998, 87.7%, 37.2%)" stroke-width="1.5"></path>
        <path d="M1295.33 -78.67L1444.75 85.36" stroke="hsl(196.89999999999998, 87.7%, 37.2%)" stroke-width="1.5"></path>
        <path d="M1295.33 -78.67L1592.48 -48.77" stroke="hsl(196.89999999999998, 87.7%, 37.2%)" stroke-width="1.5"></path>
        <path d="M1295.33 -78.67L1440.33 191.19" stroke="hsl(196.89999999999998, 87.7%, 37.2%)" stroke-width="1.5"></path>
        <path d="M1295.33 -78.67L1572.98 79.39" stroke="hsl(196.89999999999998, 87.7%, 37.2%)" stroke-width="1.5"></path>
        <path d="M1257.23 44.38L1257.23 44.38" stroke="hsl(196.89999999999998, 87.7%, 37.2%)" stroke-width="1.5"></path>
        <path d="M1244.71 388.07L1244.71 388.07" stroke="hsl(196.89999999999998, 87.7%, 37.2%)" stroke-width="1.5"></path>
        <path d="M1244.71 388.07L1237.78 534.24" stroke="hsl(196.89999999999998, 87.7%, 37.2%)" stroke-width="1.5"></path>
        <path d="M1244.71 388.07L1435.81 374.38" stroke="hsl(196.89999999999998, 87.7%, 37.2%)" stroke-width="1.5"></path>
        <path d="M1237.78 534.24L1237.78 534.24" stroke="hsl(196.89999999999998, 87.7%, 37.2%)" stroke-width="1.5"></path>
        <path d="M1237.78 534.24L1300.27 703.36" stroke="hsl(196.89999999999998, 87.7%, 37.2%)" stroke-width="1.5"></path>
        <path d="M1237.78 534.24L1126.28 376.63" stroke="hsl(196.89999999999998, 87.7%, 37.2%)" stroke-width="1.5"></path>
        <path d="M1237.78 534.24L1407.57 705.64" stroke="hsl(196.89999999999998, 87.7%, 37.2%)" stroke-width="1.5"></path>
        <path d="M1300.27 703.36L1300.27 703.36" stroke="hsl(196.89999999999998, 87.7%, 37.2%)" stroke-width="1.5"></path>
        <path d="M1300.27 703.36L1293.68 793.39" stroke="hsl(196.89999999999998, 87.7%, 37.2%)" stroke-width="1.5"></path>
        <path d="M1300.27 703.36L1407.57 705.64" stroke="hsl(196.89999999999998, 87.7%, 37.2%)" stroke-width="1.5"></path>
        <path d="M1293.68 793.39L1293.68 793.39" stroke="hsl(196.89999999999998, 87.7%, 37.2%)" stroke-width="1.5"></path>
        <path d="M1293.68 793.39L1407.57 705.64" stroke="hsl(196.89999999999998, 87.7%, 37.2%)" stroke-width="1.5"></path>
        <path d="M1293.68 793.39L1435.02 858.09" stroke="hsl(196.89999999999998, 87.7%, 37.2%)" stroke-width="1.5"></path>
        <path d="M1293.68 793.39L1253.15 983.49" stroke="hsl(196.89999999999998, 87.7%, 37.2%)" stroke-width="1.5"></path>
        <path d="M1253.15 983.49L1253.15 983.49" stroke="hsl(196.89999999999998, 87.7%, 37.2%)" stroke-width="1.5"></path>
        <path d="M1253.15 983.49L1435.99 980.3" stroke="hsl(196.89999999999998, 87.7%, 37.2%)" stroke-width="1.5"></path>
        <path d="M1406.71 -39.7L1406.71 -39.7" stroke="hsl(196.89999999999998, 87.7%, 37.2%)" stroke-width="1.5"></path>
        <path d="M1406.71 -39.7L1444.75 85.36" stroke="hsl(196.89999999999998, 87.7%, 37.2%)" stroke-width="1.5"></path>
        <path d="M1406.71 -39.7L1257.23 44.38" stroke="hsl(196.89999999999998, 87.7%, 37.2%)" stroke-width="1.5"></path>
        <path d="M1406.71 -39.7L1592.48 -48.77" stroke="hsl(196.89999999999998, 87.7%, 37.2%)" stroke-width="1.5"></path>
        <path d="M1440.33 191.19L1440.33 191.19" stroke="hsl(196.89999999999998, 87.7%, 37.2%)" stroke-width="1.5"></path>
        <path d="M1440.33 191.19L1435.81 374.38" stroke="hsl(196.89999999999998, 87.7%, 37.2%)" stroke-width="1.5"></path>
        <path d="M1435.81 374.38L1435.81 374.38" stroke="hsl(196.89999999999998, 87.7%, 37.2%)" stroke-width="1.5"></path>
        <path d="M1435.81 374.38L1560.62 354.11" stroke="hsl(196.89999999999998, 87.7%, 37.2%)" stroke-width="1.5"></path>
        <path d="M1435.81 374.38L1568.48 516" stroke="hsl(196.89999999999998, 87.7%, 37.2%)" stroke-width="1.5"></path>
        <path d="M1435.81 374.38L1570.01 202.59" stroke="hsl(196.89999999999998, 87.7%, 37.2%)" stroke-width="1.5"></path>
        <path d="M1407.57 705.64L1407.57 705.64" stroke="hsl(196.89999999999998, 87.7%, 37.2%)" stroke-width="1.5"></path>
        <path d="M1407.57 705.64L1435.02 858.09" stroke="hsl(196.89999999999998, 87.7%, 37.2%)" stroke-width="1.5"></path>
        <path d="M1407.57 705.64L1568.5 670.58" stroke="hsl(196.89999999999998, 87.7%, 37.2%)" stroke-width="1.5"></path>
        <path d="M1435.02 858.09L1435.02 858.09" stroke="hsl(196.89999999999998, 87.7%, 37.2%)" stroke-width="1.5"></path>
        <path d="M1435.02 858.09L1435.99 980.3" stroke="hsl(196.89999999999998, 87.7%, 37.2%)" stroke-width="1.5"></path>
        <path d="M1435.02 858.09L1300.27 703.36" stroke="hsl(196.89999999999998, 87.7%, 37.2%)" stroke-width="1.5"></path>
        <path d="M1435.02 858.09L1253.15 983.49" stroke="hsl(196.89999999999998, 87.7%, 37.2%)" stroke-width="1.5"></path>
        <path d="M1435.99 980.3L1435.99 980.3" stroke="hsl(196.89999999999998, 87.7%, 37.2%)" stroke-width="1.5"></path>
        <path d="M1592.48 -48.77L1592.48 -48.77" stroke="hsl(196.89999999999998, 87.7%, 37.2%)" stroke-width="1.5"></path>
        <path d="M1560.62 354.11L1560.62 354.11" stroke="hsl(196.89999999999998, 87.7%, 37.2%)" stroke-width="1.5"></path>
        <path d="M1560.62 354.11L1440.33 191.19" stroke="hsl(196.89999999999998, 87.7%, 37.2%)" stroke-width="1.5"></path>
        <path d="M1568.5 670.58L1568.5 670.58" stroke="hsl(196.89999999999998, 87.7%, 37.2%)" stroke-width="1.5"></path>
        <path d="M1568.5 670.58L1396.66 540.36" stroke="hsl(196.89999999999998, 87.7%, 37.2%)" stroke-width="1.5"></path>
        <path d="M1568.5 670.58L1435.02 858.09" stroke="hsl(196.89999999999998, 87.7%, 37.2%)" stroke-width="1.5"></path>
        <path d="M1568.5 670.58L1300.27 703.36" stroke="hsl(196.89999999999998, 87.7%, 37.2%)" stroke-width="1.5"></path>
        <circle r="25" cx="-39.71" cy="957.32" fill="url(&quot;#SvgjsRadialGradient2018&quot;)"></circle>
        <circle r="25" cx="380.35" cy="698.72" fill="url(&quot;#SvgjsRadialGradient2018&quot;)"></circle>
        <circle r="25" cx="343.03" cy="982.15" fill="url(&quot;#SvgjsRadialGradient2018&quot;)"></circle>
        <circle r="25" cx="811.27" cy="542.05" fill="url(&quot;#SvgjsRadialGradient2018&quot;)"></circle>
        <circle r="25" cx="981.15" cy="855.48" fill="url(&quot;#SvgjsRadialGradient2018&quot;)"></circle>
        <circle r="25" cx="1095.81" cy="806.24" fill="url(&quot;#SvgjsRadialGradient2018&quot;)"></circle>
        <circle r="25" cx="1258.67" cy="245.47" fill="url(&quot;#SvgjsRadialGradient2018&quot;)"></circle>
        <circle r="25" cx="1444.75" cy="85.36" fill="url(&quot;#SvgjsRadialGradient2018&quot;)"></circle>
        <circle r="25" cx="1396.66" cy="540.36" fill="url(&quot;#SvgjsRadialGradient2018&quot;)"></circle>
        <circle r="25" cx="1572.98" cy="79.39" fill="url(&quot;#SvgjsRadialGradient2018&quot;)"></circle>
        <circle r="25" cx="1570.01" cy="202.59" fill="url(&quot;#SvgjsRadialGradient2018&quot;)"></circle>
        <circle r="25" cx="1568.48" cy="516" fill="url(&quot;#SvgjsRadialGradient2018&quot;)"></circle>
        <circle r="25" cx="1560.31" cy="974.57" fill="url(&quot;#SvgjsRadialGradient2018&quot;)"></circle>
        <circle r="5" cx="-74.01" cy="825.21" fill="#84b2c4"></circle>
        <circle r="5" cx="98.64" cy="852.76" fill="#84b2c4"></circle>
        <circle r="5" cx="48.23" cy="977.71" fill="#84b2c4"></circle>
        <circle r="5" cx="225.31" cy="836.42" fill="#84b2c4"></circle>
        <circle r="5" cx="208.14" cy="955.67" fill="#84b2c4"></circle>
        <circle r="5" cx="364.17" cy="811.66" fill="#84b2c4"></circle>
        <circle r="5" cx="511.73" cy="837.56" fill="#84b2c4"></circle>
        <circle r="5" cx="537.3" cy="1008.72" fill="#84b2c4"></circle>
        <circle r="5" cx="707.24" cy="710.71" fill="#84b2c4"></circle>
        <circle r="5" cx="661.85" cy="986.01" fill="#84b2c4"></circle>
        <circle r="5" cx="808.86" cy="686.94" fill="#84b2c4"></circle>
        <circle r="5" cx="797.3" cy="821.59" fill="#84b2c4"></circle>
        <circle r="5" cx="938.31" cy="559.16" fill="#84b2c4"></circle>
        <circle r="5" cx="957.02" cy="704" fill="#84b2c4"></circle>
        <circle r="5" cx="956.32" cy="993.77" fill="#84b2c4"></circle>
        <circle r="5" cx="1126.28" cy="376.63" fill="#84b2c4"></circle>
        <circle r="5" cx="1130.25" cy="555.83" fill="#84b2c4"></circle>
        <circle r="5" cx="1143.78" cy="1011.96" fill="#84b2c4"></circle>
        <circle r="5" cx="1295.33" cy="-78.67" fill="#84b2c4"></circle>
        <circle r="5" cx="1257.23" cy="44.38" fill="#84b2c4"></circle>
        <circle r="5" cx="1244.71" cy="388.07" fill="#84b2c4"></circle>
        <circle r="5" cx="1237.78" cy="534.24" fill="#84b2c4"></circle>
        <circle r="5" cx="1300.27" cy="703.36" fill="#84b2c4"></circle>
        <circle r="5" cx="1293.68" cy="793.39" fill="#84b2c4"></circle>
        <circle r="5" cx="1253.15" cy="983.49" fill="#84b2c4"></circle>
        <circle r="5" cx="1406.71" cy="-39.7" fill="#84b2c4"></circle>
        <circle r="5" cx="1440.33" cy="191.19" fill="#84b2c4"></circle>
        <circle r="5" cx="1435.81" cy="374.38" fill="#84b2c4"></circle>
        <circle r="5" cx="1407.57" cy="705.64" fill="#84b2c4"></circle>
        <circle r="5" cx="1435.02" cy="858.09" fill="#84b2c4"></circle>
        <circle r="5" cx="1435.99" cy="980.3" fill="#84b2c4"></circle>
        <circle r="5" cx="1592.48" cy="-48.77" fill="#84b2c4"></circle>
        <circle r="5" cx="1560.62" cy="354.11" fill="#84b2c4"></circle>
        <circle r="5" cx="1568.5" cy="670.58" fill="#84b2c4"></circle>
    </g>
    <defs>
        <mask id="SvgjsMask2016">
            <rect width="1440" height="900" fill="#ffffff"></rect>
        </mask>
        <linearGradient x1="9.37%" y1="-15%" x2="90.63%" y2="115%" gradientUnits="userSpaceOnUse" id="SvgjsLinearGradient2017">
            <stop stop-color="rgba(0, 0, 0, 1)" offset="0"></stop>
            <stop stop-color="rgba(0, 0, 0, 1)" offset="1"></stop>
        </linearGradient>
        <radialGradient id="SvgjsRadialGradient2018">
            <stop stop-color="#ffffff" offset="0.1"></stop>
            <stop stop-color="rgba(9, 101, 137, 1)" offset="0.2"></stop>
            <stop stop-color="rgba(9, 101, 137, 0)" offset="1"></stop>
        </radialGradient>
    </defs>
</svg>